<mxfile host="app.diagrams.net" modified="2023-12-30T14:36:24.484Z" agent="Mozilla/5.0 (Macintosh; Intel Mac OS X 10_15_7) AppleWebKit/537.36 (KHTML, like Gecko) Chrome/120.0.0.0 Safari/537.36" etag="qvnoUN9UKqZ8tE9q9FnO" version="22.1.16" type="github">
  <diagram name="第 1 页" id="InZAc0_TM-ClW46jviGC">
    <mxGraphModel dx="2074" dy="1180" grid="1" gridSize="10" guides="1" tooltips="1" connect="1" arrows="1" fold="1" page="1" pageScale="1" pageWidth="1200" pageHeight="500" math="0" shadow="0">
      <root>
        <mxCell id="0" />
        <mxCell id="1" parent="0" />
        <mxCell id="WfHY0GyfMgqrQZnhInwm-1" value="" style="edgeStyle=orthogonalEdgeStyle;rounded=0;orthogonalLoop=1;jettySize=auto;html=1;" edge="1" parent="1" source="WfHY0GyfMgqrQZnhInwm-2" target="WfHY0GyfMgqrQZnhInwm-4">
          <mxGeometry relative="1" as="geometry" />
        </mxCell>
        <mxCell id="WfHY0GyfMgqrQZnhInwm-2" value="" style="rounded=1;whiteSpace=wrap;html=1;fillColor=#fff2cc;strokeColor=#d6b656;" vertex="1" parent="1">
          <mxGeometry x="30" y="250" width="140" height="170" as="geometry" />
        </mxCell>
        <mxCell id="WfHY0GyfMgqrQZnhInwm-3" value="" style="edgeStyle=orthogonalEdgeStyle;rounded=0;orthogonalLoop=1;jettySize=auto;html=1;" edge="1" parent="1" source="WfHY0GyfMgqrQZnhInwm-4">
          <mxGeometry relative="1" as="geometry">
            <mxPoint x="572.5" y="335" as="targetPoint" />
          </mxGeometry>
        </mxCell>
        <mxCell id="WfHY0GyfMgqrQZnhInwm-4" value="&lt;font style=&quot;font-size: 18px;&quot;&gt;LLM-Agent&lt;/font&gt;" style="rounded=0;whiteSpace=wrap;html=1;fillColor=#f5f5f5;fontColor=#333333;strokeColor=#666666;" vertex="1" parent="1">
          <mxGeometry x="240" y="290" width="280" height="90" as="geometry" />
        </mxCell>
        <mxCell id="WfHY0GyfMgqrQZnhInwm-5" value="用户历史querys" style="rounded=1;whiteSpace=wrap;html=1;fillColor=#fff2cc;strokeColor=#330000;" vertex="1" parent="1">
          <mxGeometry x="40" y="360" width="120" height="40" as="geometry" />
        </mxCell>
        <mxCell id="WfHY0GyfMgqrQZnhInwm-6" value="用户画像" style="rounded=1;whiteSpace=wrap;html=1;fillColor=#fff2cc;strokeColor=#330000;" vertex="1" parent="1">
          <mxGeometry x="40" y="310" width="120" height="40" as="geometry" />
        </mxCell>
        <mxCell id="WfHY0GyfMgqrQZnhInwm-47" value="" style="edgeStyle=orthogonalEdgeStyle;rounded=0;orthogonalLoop=1;jettySize=auto;html=1;" edge="1" parent="1" source="WfHY0GyfMgqrQZnhInwm-7" target="WfHY0GyfMgqrQZnhInwm-34">
          <mxGeometry relative="1" as="geometry" />
        </mxCell>
        <mxCell id="WfHY0GyfMgqrQZnhInwm-7" value="用户query" style="rounded=1;whiteSpace=wrap;html=1;fillColor=#fff2cc;strokeColor=#330000;" vertex="1" parent="1">
          <mxGeometry x="40" y="260" width="120" height="40" as="geometry" />
        </mxCell>
        <mxCell id="WfHY0GyfMgqrQZnhInwm-18" value="" style="edgeStyle=orthogonalEdgeStyle;rounded=0;orthogonalLoop=1;jettySize=auto;html=1;" edge="1" parent="1" source="WfHY0GyfMgqrQZnhInwm-19" target="WfHY0GyfMgqrQZnhInwm-29">
          <mxGeometry relative="1" as="geometry" />
        </mxCell>
        <mxCell id="WfHY0GyfMgqrQZnhInwm-19" value="模型输出推理过程和SUG query" style="text;html=1;strokeColor=none;fillColor=none;align=center;verticalAlign=middle;whiteSpace=wrap;rounded=0;" vertex="1" parent="1">
          <mxGeometry x="772.5" y="260" width="200" height="30" as="geometry" />
        </mxCell>
        <mxCell id="WfHY0GyfMgqrQZnhInwm-20" value="基于以上策划，我推测用户可能会问以下问题：&lt;br style=&quot;border-color: var(--border-color); color: rgb(0, 0, 0);&quot;&gt;&lt;span style=&quot;border-color: var(--border-color); color: rgb(0, 0, 0);&quot;&gt;1.&amp;nbsp; &amp;lt;CoT&amp;gt; &amp;lt;query&amp;gt;&amp;nbsp;&lt;/span&gt;&lt;br style=&quot;border-color: var(--border-color); color: rgb(0, 0, 0);&quot;&gt;&lt;span style=&quot;border-color: var(--border-color); color: rgb(0, 0, 0);&quot;&gt;2.&amp;nbsp; &amp;lt;CoT&amp;gt; &amp;lt;query&amp;gt;&lt;/span&gt;&lt;br style=&quot;border-color: var(--border-color); color: rgb(0, 0, 0);&quot;&gt;&lt;span style=&quot;border-color: var(--border-color); color: rgb(0, 0, 0);&quot;&gt;3.&amp;nbsp; &amp;lt;CoT&amp;gt; &amp;lt;query&amp;gt;&lt;/span&gt;" style="rounded=0;whiteSpace=wrap;html=1;fillColor=#ffe6cc;strokeColor=#d79b00;" vertex="1" parent="1">
          <mxGeometry x="742.5" y="290" width="260" height="90" as="geometry" />
        </mxCell>
        <mxCell id="WfHY0GyfMgqrQZnhInwm-22" style="edgeStyle=orthogonalEdgeStyle;rounded=0;orthogonalLoop=1;jettySize=auto;html=1;exitX=1;exitY=0.5;exitDx=0;exitDy=0;" edge="1" parent="1" source="WfHY0GyfMgqrQZnhInwm-23" target="WfHY0GyfMgqrQZnhInwm-20">
          <mxGeometry relative="1" as="geometry" />
        </mxCell>
        <mxCell id="WfHY0GyfMgqrQZnhInwm-23" value="&lt;font style=&quot;font-size: 18px;&quot;&gt;Planing&lt;/font&gt;" style="ellipse;whiteSpace=wrap;html=1;fillColor=#d5e8d4;strokeColor=#82b366;" vertex="1" parent="1">
          <mxGeometry x="572.5" y="295" width="120" height="80" as="geometry" />
        </mxCell>
        <mxCell id="WfHY0GyfMgqrQZnhInwm-24" style="edgeStyle=orthogonalEdgeStyle;rounded=0;orthogonalLoop=1;jettySize=auto;html=1;entryX=0.5;entryY=1;entryDx=0;entryDy=0;dashed=1;" edge="1" parent="1" source="WfHY0GyfMgqrQZnhInwm-26" target="WfHY0GyfMgqrQZnhInwm-31">
          <mxGeometry relative="1" as="geometry" />
        </mxCell>
        <mxCell id="WfHY0GyfMgqrQZnhInwm-25" style="edgeStyle=orthogonalEdgeStyle;rounded=0;orthogonalLoop=1;jettySize=auto;html=1;exitX=0.5;exitY=1;exitDx=0;exitDy=0;entryX=0.5;entryY=1;entryDx=0;entryDy=0;dashed=1;" edge="1" parent="1" source="WfHY0GyfMgqrQZnhInwm-26" target="WfHY0GyfMgqrQZnhInwm-5">
          <mxGeometry relative="1" as="geometry">
            <mxPoint x="700" y="540" as="targetPoint" />
            <Array as="points">
              <mxPoint x="1120" y="450" />
              <mxPoint x="100" y="450" />
            </Array>
          </mxGeometry>
        </mxCell>
        <mxCell id="WfHY0GyfMgqrQZnhInwm-26" value="" style="shape=actor;whiteSpace=wrap;html=1;fillColor=#f5f5f5;strokeColor=#666666;fontColor=#333333;" vertex="1" parent="1">
          <mxGeometry x="1100" y="305" width="40" height="60" as="geometry" />
        </mxCell>
        <mxCell id="WfHY0GyfMgqrQZnhInwm-27" value="User Action" style="text;html=1;strokeColor=none;fillColor=none;align=center;verticalAlign=middle;whiteSpace=wrap;rounded=0;" vertex="1" parent="1">
          <mxGeometry x="1055" y="220" width="60" height="20" as="geometry" />
        </mxCell>
        <mxCell id="WfHY0GyfMgqrQZnhInwm-28" value="" style="edgeStyle=orthogonalEdgeStyle;rounded=0;orthogonalLoop=1;jettySize=auto;html=1;" edge="1" parent="1" source="WfHY0GyfMgqrQZnhInwm-29" target="WfHY0GyfMgqrQZnhInwm-31">
          <mxGeometry relative="1" as="geometry" />
        </mxCell>
        <mxCell id="WfHY0GyfMgqrQZnhInwm-29" value="&lt;font style=&quot;font-size: 16px;&quot;&gt;SUG query&lt;br&gt;池子&lt;br&gt;&lt;/font&gt;" style="shape=cylinder3;whiteSpace=wrap;html=1;boundedLbl=1;backgroundOutline=1;size=15;fillColor=#dae8fc;strokeColor=#6c8ebf;" vertex="1" parent="1">
          <mxGeometry x="820" y="80" width="105" height="80" as="geometry" />
        </mxCell>
        <mxCell id="WfHY0GyfMgqrQZnhInwm-30" value="基于LLM预测的候选query从SUG query库中进行搜索，产生最终SUG querys" style="text;html=1;strokeColor=none;fillColor=none;align=left;verticalAlign=middle;whiteSpace=wrap;rounded=0;" vertex="1" parent="1">
          <mxGeometry x="880" y="170" width="110" height="100" as="geometry" />
        </mxCell>
        <mxCell id="WfHY0GyfMgqrQZnhInwm-31" value="Final SUG query1&lt;br&gt;Final SUG query2&lt;br&gt;Final SUG query3" style="rounded=0;whiteSpace=wrap;html=1;fillColor=#ffe6cc;strokeColor=#d79b00;" vertex="1" parent="1">
          <mxGeometry x="1055" y="91.25" width="130" height="57.5" as="geometry" />
        </mxCell>
        <mxCell id="WfHY0GyfMgqrQZnhInwm-32" value="用户点击或者手输query存入历史query" style="text;html=1;strokeColor=none;fillColor=none;align=center;verticalAlign=middle;whiteSpace=wrap;rounded=0;" vertex="1" parent="1">
          <mxGeometry x="530" y="420" width="240" height="30" as="geometry" />
        </mxCell>
        <mxCell id="WfHY0GyfMgqrQZnhInwm-45" value="" style="group" vertex="1" connectable="0" parent="1">
          <mxGeometry x="50" y="68.75" width="120" height="190" as="geometry" />
        </mxCell>
        <mxCell id="WfHY0GyfMgqrQZnhInwm-35" value="" style="ellipse;whiteSpace=wrap;html=1;aspect=fixed;" vertex="1" parent="WfHY0GyfMgqrQZnhInwm-45">
          <mxGeometry y="38.57142857142857" width="15.669642857142856" height="15.669642857142856" as="geometry" />
        </mxCell>
        <mxCell id="WfHY0GyfMgqrQZnhInwm-36" value="" style="ellipse;whiteSpace=wrap;html=1;aspect=fixed;" vertex="1" parent="WfHY0GyfMgqrQZnhInwm-45">
          <mxGeometry x="38.57142857142857" width="15.669642857142856" height="15.669642857142856" as="geometry" />
        </mxCell>
        <mxCell id="WfHY0GyfMgqrQZnhInwm-37" value="" style="ellipse;whiteSpace=wrap;html=1;aspect=fixed;" vertex="1" parent="WfHY0GyfMgqrQZnhInwm-45">
          <mxGeometry x="38.57142857142857" y="70.71428571428571" width="15.669642857142856" height="15.669642857142856" as="geometry" />
        </mxCell>
        <mxCell id="WfHY0GyfMgqrQZnhInwm-38" value="" style="ellipse;whiteSpace=wrap;html=1;aspect=fixed;" vertex="1" parent="WfHY0GyfMgqrQZnhInwm-45">
          <mxGeometry x="83.57142857142857" y="35.357142857142854" width="15.669642857142856" height="15.669642857142856" as="geometry" />
        </mxCell>
        <mxCell id="WfHY0GyfMgqrQZnhInwm-41" value="" style="curved=1;endArrow=classic;html=1;rounded=0;entryX=0;entryY=0.5;entryDx=0;entryDy=0;" edge="1" parent="WfHY0GyfMgqrQZnhInwm-45" target="WfHY0GyfMgqrQZnhInwm-36">
          <mxGeometry width="50" height="50" relative="1" as="geometry">
            <mxPoint x="12.857142857142856" y="38.57142857142857" as="sourcePoint" />
            <mxPoint x="48.21428571428571" y="12.857142857142858" as="targetPoint" />
            <Array as="points">
              <mxPoint x="12.857142857142856" y="25.714285714285715" />
            </Array>
          </mxGeometry>
        </mxCell>
        <mxCell id="WfHY0GyfMgqrQZnhInwm-42" value="" style="curved=1;endArrow=classic;html=1;rounded=0;entryX=0;entryY=0.5;entryDx=0;entryDy=0;" edge="1" parent="WfHY0GyfMgqrQZnhInwm-45" target="WfHY0GyfMgqrQZnhInwm-37">
          <mxGeometry width="50" height="50" relative="1" as="geometry">
            <mxPoint x="12.857142857142856" y="57.857142857142854" as="sourcePoint" />
            <mxPoint x="45" y="80.35714285714286" as="targetPoint" />
            <Array as="points">
              <mxPoint x="19.285714285714285" y="76.33928571428571" />
            </Array>
          </mxGeometry>
        </mxCell>
        <mxCell id="WfHY0GyfMgqrQZnhInwm-43" value="" style="curved=1;endArrow=classic;html=1;rounded=0;entryX=0.5;entryY=0;entryDx=0;entryDy=0;" edge="1" parent="WfHY0GyfMgqrQZnhInwm-45" target="WfHY0GyfMgqrQZnhInwm-38">
          <mxGeometry width="50" height="50" relative="1" as="geometry">
            <mxPoint x="57.857142857142854" y="6.428571428571429" as="sourcePoint" />
            <mxPoint x="90" y="-25.714285714285715" as="targetPoint" />
            <Array as="points">
              <mxPoint x="83.57142857142857" y="12.857142857142858" />
            </Array>
          </mxGeometry>
        </mxCell>
        <mxCell id="WfHY0GyfMgqrQZnhInwm-44" value="" style="curved=1;endArrow=classic;html=1;rounded=0;entryX=0.5;entryY=1;entryDx=0;entryDy=0;" edge="1" parent="WfHY0GyfMgqrQZnhInwm-45" target="WfHY0GyfMgqrQZnhInwm-38">
          <mxGeometry width="50" height="50" relative="1" as="geometry">
            <mxPoint x="57.857142857142854" y="83.57142857142856" as="sourcePoint" />
            <mxPoint x="90" y="51.42857142857143" as="targetPoint" />
            <Array as="points">
              <mxPoint x="90" y="83.57142857142856" />
            </Array>
          </mxGeometry>
        </mxCell>
        <mxCell id="WfHY0GyfMgqrQZnhInwm-50" value="状态转移矩阵" style="text;html=1;strokeColor=none;fillColor=none;align=center;verticalAlign=middle;whiteSpace=wrap;rounded=0;" vertex="1" parent="WfHY0GyfMgqrQZnhInwm-45">
          <mxGeometry x="25.71428571428571" y="29.5" width="51.42857142857142" height="30" as="geometry" />
        </mxCell>
        <mxCell id="WfHY0GyfMgqrQZnhInwm-53" value="" style="edgeStyle=orthogonalEdgeStyle;rounded=0;orthogonalLoop=1;jettySize=auto;html=1;" edge="1" parent="WfHY0GyfMgqrQZnhInwm-45">
          <mxGeometry relative="1" as="geometry">
            <mxPoint x="45.66" y="116.38" as="sourcePoint" />
            <mxPoint x="46.66" y="86.38" as="targetPoint" />
          </mxGeometry>
        </mxCell>
        <mxCell id="WfHY0GyfMgqrQZnhInwm-49" value="状态概率" style="text;html=1;strokeColor=none;fillColor=none;align=center;verticalAlign=middle;whiteSpace=wrap;rounded=0;" vertex="1" parent="WfHY0GyfMgqrQZnhInwm-45">
          <mxGeometry x="-21.43" y="86.38" width="60" height="30" as="geometry" />
        </mxCell>
        <mxCell id="WfHY0GyfMgqrQZnhInwm-34" value="状态分类模型" style="rounded=1;whiteSpace=wrap;html=1;fillColor=#f5f5f5;strokeColor=#666666;fontColor=#333333;" vertex="1" parent="1">
          <mxGeometry x="40" y="190" width="120" height="40" as="geometry" />
        </mxCell>
        <mxCell id="WfHY0GyfMgqrQZnhInwm-63" style="edgeStyle=orthogonalEdgeStyle;rounded=0;orthogonalLoop=1;jettySize=auto;html=1;exitX=0.5;exitY=0;exitDx=0;exitDy=0;entryX=0;entryY=0.5;entryDx=0;entryDy=0;" edge="1" parent="1" source="WfHY0GyfMgqrQZnhInwm-54" target="WfHY0GyfMgqrQZnhInwm-55">
          <mxGeometry relative="1" as="geometry" />
        </mxCell>
        <mxCell id="WfHY0GyfMgqrQZnhInwm-54" value="当前状态" style="ellipse;whiteSpace=wrap;html=1;fillColor=#e1d5e7;strokeColor=#9673a6;" vertex="1" parent="1">
          <mxGeometry x="200" y="86.94" width="70" height="50" as="geometry" />
        </mxCell>
        <mxCell id="WfHY0GyfMgqrQZnhInwm-61" value="" style="edgeStyle=orthogonalEdgeStyle;rounded=0;orthogonalLoop=1;jettySize=auto;html=1;" edge="1" parent="1" source="WfHY0GyfMgqrQZnhInwm-55" target="WfHY0GyfMgqrQZnhInwm-58">
          <mxGeometry relative="1" as="geometry" />
        </mxCell>
        <mxCell id="WfHY0GyfMgqrQZnhInwm-55" value="目标状态1" style="ellipse;whiteSpace=wrap;html=1;fillColor=#e1d5e7;strokeColor=#9673a6;" vertex="1" parent="1">
          <mxGeometry x="290" y="30" width="70" height="50" as="geometry" />
        </mxCell>
        <mxCell id="WfHY0GyfMgqrQZnhInwm-62" value="" style="edgeStyle=orthogonalEdgeStyle;rounded=0;orthogonalLoop=1;jettySize=auto;html=1;" edge="1" parent="1" source="WfHY0GyfMgqrQZnhInwm-56" target="WfHY0GyfMgqrQZnhInwm-59">
          <mxGeometry relative="1" as="geometry" />
        </mxCell>
        <mxCell id="WfHY0GyfMgqrQZnhInwm-56" value="目标状态n" style="ellipse;whiteSpace=wrap;html=1;fillColor=#e1d5e7;strokeColor=#9673a6;" vertex="1" parent="1">
          <mxGeometry x="290" y="130" width="70" height="50" as="geometry" />
        </mxCell>
        <mxCell id="WfHY0GyfMgqrQZnhInwm-57" value="" style="endArrow=none;html=1;rounded=0;dashed=1;strokeWidth=5;dashPattern=1 1;" edge="1" parent="1">
          <mxGeometry width="50" height="50" relative="1" as="geometry">
            <mxPoint x="325" y="120" as="sourcePoint" />
            <mxPoint x="325" y="90" as="targetPoint" />
          </mxGeometry>
        </mxCell>
        <mxCell id="WfHY0GyfMgqrQZnhInwm-66" style="edgeStyle=orthogonalEdgeStyle;rounded=0;orthogonalLoop=1;jettySize=auto;html=1;entryX=0.5;entryY=0;entryDx=0;entryDy=0;" edge="1" parent="1" source="WfHY0GyfMgqrQZnhInwm-58" target="WfHY0GyfMgqrQZnhInwm-23">
          <mxGeometry relative="1" as="geometry" />
        </mxCell>
        <mxCell id="WfHY0GyfMgqrQZnhInwm-58" value="当前状态&lt;br&gt;---&amp;gt;&lt;br&gt;目标状态1&lt;br&gt;状态转移策划案" style="shape=note;whiteSpace=wrap;html=1;backgroundOutline=1;darkOpacity=0.05;fillColor=#fff2cc;strokeColor=#d6b656;" vertex="1" parent="1">
          <mxGeometry x="400" y="17.5" width="100" height="75" as="geometry" />
        </mxCell>
        <mxCell id="WfHY0GyfMgqrQZnhInwm-67" style="edgeStyle=orthogonalEdgeStyle;rounded=0;orthogonalLoop=1;jettySize=auto;html=1;" edge="1" parent="1" source="WfHY0GyfMgqrQZnhInwm-59" target="WfHY0GyfMgqrQZnhInwm-23">
          <mxGeometry relative="1" as="geometry" />
        </mxCell>
        <mxCell id="WfHY0GyfMgqrQZnhInwm-59" value="当前状态&lt;br&gt;---&amp;gt;&lt;br&gt;目标状态n&lt;br&gt;状态转移策划案" style="shape=note;whiteSpace=wrap;html=1;backgroundOutline=1;darkOpacity=0.05;fillColor=#fff2cc;strokeColor=#d6b656;" vertex="1" parent="1">
          <mxGeometry x="400" y="117.5" width="100" height="75" as="geometry" />
        </mxCell>
        <mxCell id="WfHY0GyfMgqrQZnhInwm-60" value="" style="edgeStyle=orthogonalEdgeStyle;rounded=0;orthogonalLoop=1;jettySize=auto;html=1;" edge="1" parent="1" source="WfHY0GyfMgqrQZnhInwm-38" target="WfHY0GyfMgqrQZnhInwm-54">
          <mxGeometry relative="1" as="geometry" />
        </mxCell>
        <mxCell id="WfHY0GyfMgqrQZnhInwm-65" style="edgeStyle=orthogonalEdgeStyle;rounded=0;orthogonalLoop=1;jettySize=auto;html=1;exitX=0.5;exitY=1;exitDx=0;exitDy=0;entryX=0.143;entryY=0.6;entryDx=0;entryDy=0;entryPerimeter=0;" edge="1" parent="1" source="WfHY0GyfMgqrQZnhInwm-54" target="WfHY0GyfMgqrQZnhInwm-56">
          <mxGeometry relative="1" as="geometry" />
        </mxCell>
        <mxCell id="WfHY0GyfMgqrQZnhInwm-68" value="Planing过程作为提示输入到模型当中，引导模型进行策划" style="text;html=1;strokeColor=none;fillColor=none;align=center;verticalAlign=middle;whiteSpace=wrap;rounded=0;" vertex="1" parent="1">
          <mxGeometry x="640" y="150" width="70" height="90" as="geometry" />
        </mxCell>
      </root>
    </mxGraphModel>
  </diagram>
</mxfile>
